<?xml version="1.0" encoding="UTF-8" standalone="no"?>
<svg
   version="1.1"
   width="108mm"
   height="174mm"
   id="svg1099"
   viewBox="0 0 408.18897 657.6378"
   sodipodi:docname="setup_origin.svg"
   inkscape:version="1.3.2 (091e20e, 2023-11-25)"
   xml:space="preserve"
   inkscape:export-filename="probe.pdf"
   inkscape:export-xdpi="1800"
   inkscape:export-ydpi="1800"
   xmlns:inkscape="http://www.inkscape.org/namespaces/inkscape"
   xmlns:sodipodi="http://sodipodi.sourceforge.net/DTD/sodipodi-0.dtd"
   xmlns:xlink="http://www.w3.org/1999/xlink"
   xmlns="http://www.w3.org/2000/svg"
   xmlns:svg="http://www.w3.org/2000/svg"><sodipodi:namedview
     id="namedview1101"
     pagecolor="#ffffff"
     bordercolor="#666666"
     borderopacity="1.0"
     inkscape:pageshadow="2"
     inkscape:pageopacity="0.0"
     inkscape:pagecheckerboard="0"
     showgrid="true"
     inkscape:zoom="3.2510857"
     inkscape:cx="30.143776"
     inkscape:cy="126.88069"
     inkscape:window-width="1920"
     inkscape:window-height="1022"
     inkscape:window-x="0"
     inkscape:window-y="30"
     inkscape:window-maximized="1"
     inkscape:current-layer="layer13"
     inkscape:snap-global="false"
     inkscape:snap-bbox="true"
     height="80px"
     inkscape:showpageshadow="2"
     inkscape:deskcolor="#d1d1d1"
     inkscape:document-units="mm"><inkscape:grid
       id="grid10"
       units="mm"
       originx="0"
       originy="0"
       spacingx="3.7795276"
       spacingy="3.7795275"
       empcolor="#0099e5"
       empopacity="0.30196078"
       color="#0099e5"
       opacity="0.14901961"
       empspacing="3"
       dotted="false"
       gridanglex="30"
       gridanglez="30"
       visible="true" /></sodipodi:namedview><defs
     id="defs63"><rect
       x="92.619068"
       y="14.912757"
       width="22.67717"
       height="7.5590554"
       id="rect17" /><rect
       x="92.619068"
       y="14.912757"
       width="22.67717"
       height="7.5590554"
       id="rect16" /><rect
       x="113.9359"
       y="18.5143"
       width="22.67717"
       height="7.5590554"
       id="rect8" /><rect
       x="113.9359"
       y="26.073355"
       width="22.67717"
       height="7.5590535"
       id="rect7" /><rect
       x="113.9359"
       y="10.955244"
       width="22.67717"
       height="7.5590554"
       id="rect6" /><rect
       x="-8.1015919"
       y="47.090503"
       width="36.457163"
       height="11.392864"
       id="rect2" /><linearGradient
       inkscape:collect="always"
       id="linearGradient8624"><stop
         style="stop-color:#ff0000;stop-opacity:1;"
         offset="0"
         id="stop8620" /><stop
         style="stop-color:#ff0000;stop-opacity:0;"
         offset="1"
         id="stop8622" /></linearGradient><linearGradient
       id="grad1"><stop
         offset="0%"
         stop-color="#c5c7c8"
         stop-opacity="1.0000"
         id="stop57" /><stop
         offset="100%"
         stop-color="#ffffff"
         stop-opacity="1.0000"
         id="stop59" /></linearGradient><linearGradient
       xlink:href="#grad1"
       id="grad2"
       x1="0"
       y1="0"
       x2="0"
       y2="1"
       gradientTransform="rotate(180,0.5,0.5)"
       gradientUnits="objectBoundingBox" /><marker
       id="startMarker1-2"
       markerUnits="strokeWidth"
       orient="auto"
       markerWidth="8"
       markerHeight="6"
       viewBox="0 0 10 10"
       refX="9"
       refY="5"><polyline
         points="10,0 0,5 10,10 9,5"
         fill="solid"
         id="polyline132-0" /></marker><rect
       x="-8.1015921"
       y="47.090504"
       width="36.457165"
       height="11.392864"
       id="rect2-8" /><rect
       x="-8.1015921"
       y="47.090504"
       width="36.457165"
       height="11.392864"
       id="rect2-8-5" /></defs><defs
     id="defs99"><linearGradient
       id="grad3"><stop
         offset="0%"
         stop-color="#6d87de"
         stop-opacity="1.0000"
         id="stop93" /><stop
         offset="100%"
         stop-color="#c4d3e9"
         stop-opacity="1.0000"
         id="stop95" /></linearGradient><linearGradient
       xlink:href="#linearGradient8624"
       id="grad4"
       x1="46.90501"
       y1="174.49483"
       x2="46.90501"
       y2="312.07034"
       gradientTransform="matrix(1.6875807,0,0,0.25316802,-33.152514,127.42787)"
       gradientUnits="userSpaceOnUse" /></defs><defs
     id="defs109"><linearGradient
       id="grad5"><stop
         offset="0%"
         stop-color="#6d87de"
         stop-opacity="1.0000"
         id="stop103" /><stop
         offset="100%"
         stop-color="#c4d3e9"
         stop-opacity="1.0000"
         id="stop105" /></linearGradient><linearGradient
       xlink:href="#grad5"
       id="grad6"
       x1="89.728928"
       y1="344.37433"
       x2="89.728928"
       y2="369.67828"
       gradientTransform="matrix(1.9122317,0,0,0.52294918,1.9145485,-2.2007137)"
       gradientUnits="userSpaceOnUse" /></defs><defs
     id="defs119"><linearGradient
       id="grad7"><stop
         offset="0%"
         stop-color="#6d87de"
         stop-opacity="1.0000"
         id="stop113" /><stop
         offset="100%"
         stop-color="#c4d3e9"
         stop-opacity="1.0000"
         id="stop115" /></linearGradient><linearGradient
       xlink:href="#grad7"
       id="grad8"
       x1="50.299076"
       y1="358.06638"
       x2="50.299076"
       y2="384.63248"
       gradientTransform="matrix(1.9896906,0,0,0.50259071,1.9145485,-2.2007137)"
       gradientUnits="userSpaceOnUse" /></defs><defs
     id="defs128"><linearGradient
       id="grad9"
       gradientTransform="matrix(3.4576207,0,0,0.28921622,1.1907683,-0.29925163)"
       x1="13.001122"
       y1="699.19464"
       x2="80.069298"
       y2="699.19464"
       gradientUnits="userSpaceOnUse"><stop
         offset="0%"
         stop-color="#ffcb00"
         stop-opacity="1.0000"
         id="stop123" /><stop
         offset="100%"
         stop-color="#fff480"
         stop-opacity="1.0000"
         id="stop125" /></linearGradient></defs><defs
     id="defs135"><marker
       id="startMarker1"
       markerUnits="strokeWidth"
       orient="auto"
       markerWidth="8"
       markerHeight="6"
       viewBox="0 0 10 10"
       refX="9"
       refY="5"><polyline
         points="10,0 0,5 10,10 9,5"
         fill="solid"
         id="polyline132" /></marker></defs><defs
     id="defs142"><marker
       id="startMarker2"
       markerUnits="strokeWidth"
       orient="auto"
       markerWidth="8"
       markerHeight="6"
       viewBox="0 0 10 10"
       refX="9"
       refY="5"><polyline
         points="10,0 0,5 10,10 9,5"
         fill="solid"
         id="polyline139" /></marker></defs><defs
     id="defs152"><linearGradient
       id="grad10"><stop
         offset="0%"
         stop-color="#6d87de"
         stop-opacity="1.0000"
         id="stop146" /><stop
         offset="100%"
         stop-color="#c4d3e9"
         stop-opacity="1.0000"
         id="stop148" /></linearGradient><linearGradient
       xlink:href="#grad10"
       id="grad11"
       x1="7.3408446"
       y1="1265.9705"
       x2="7.3408446"
       y2="1303.8392"
       gradientTransform="matrix(6.1236755,0,0,0.16330062,0.9428634,-0.795065)"
       gradientUnits="userSpaceOnUse" /></defs><g
     inkscape:groupmode="layer"
     id="layer8"
     inkscape:label="probe"><rect
       style="fill:#a6e1f4;fill-opacity:1;stroke:none;stroke-width:0.730691"
       id="rect36"
       width="52.913387"
       height="52.913387"
       x="58.582703"
       y="147.40158" /><path
       style="fill:#00a9e0;stroke-width:0.7559055;stroke:#000000;stroke-dasharray:none"
       d="m 62.362227,158.74016 11.33858,7.55906 11.33859,-7.55906 v 15.11811 l -11.33859,-7.55905 -11.33858,7.55905 z"
       id="path1-7" /><rect
       style="fill:#00a9e0;stroke-width:0.7559055;stroke-dasharray:none;stroke:#000000"
       id="rect3-8"
       width="15.11811"
       height="15.11811"
       x="88.818939"
       y="177.63779" /><rect
       style="fill:#73787e;stroke-width:0.7559055;stroke-dasharray:none;stroke:#000000"
       id="rect3-8-7"
       width="15.11811"
       height="7.5590549"
       x="88.818939"
       y="177.63779" /><path
       style="fill:#8290bb;stroke:#000000;stroke-width:0.755906"
       d="M 107.71656,173.85827 V 158.74016"
       id="path9"
       sodipodi:nodetypes="cc" /><path
       style="fill:#8290bb;stroke:#000000;stroke-width:0.835685"
       d="M 66.141757,154.96063 H 107.71656"
       id="path35" /><path
       style="fill:none;fill-opacity:0.401408;stroke:#000000;stroke-width:0.755906"
       d="m 96.377981,192.75591 v 3.77952 H 58.582697"
       id="path37" /><path
       style="fill:#00a9e0;fill-opacity:0.401408;stroke:#000000;stroke-width:0.755906"
       d="m 62.362227,166.29922 h -3.77953"
       id="path38" /><path
       style="fill:#00a9e0;fill-opacity:0.401408;stroke:#000000;stroke-width:0.755906"
       d="m 96.377971,171.9685 1e-5,5.6693"
       id="path39"
       sodipodi:nodetypes="cc" /><path
       style="fill:#00a9e0;fill-opacity:0.401408;stroke:#000000;stroke-width:0.755906"
       d="m 85.039397,166.29922 5.66928,-1e-5"
       id="path40"
       sodipodi:nodetypes="cc" /><circle
       style="fill:#00a9e0;fill-opacity:1;stroke:#000000;stroke-width:0.7559055;stroke-dasharray:none"
       id="path41"
       cx="96.37796"
       cy="166.29921"
       r="5.6692915" /><path
       style="fill:none;fill-opacity:0.401408;stroke:#000000;stroke-width:0.755906"
       d="m 85.039397,154.96063 v -3.78375 l 26.456693,0.004"
       id="path53"
       sodipodi:nodetypes="ccc" /><path
       style="fill:#73787e;fill-opacity:1;stroke:#000000;stroke-width:0.755906"
       d="m 107.71656,166.29922 h 3.77953"
       id="path56" /></g><g
     inkscape:groupmode="layer"
     id="layer12"
     inkscape:label="bonds"
     style="display:inline"><path
       style="fill:none;fill-opacity:0.401408;stroke:#000000;stroke-width:0.755906"
       d="m 111.49609,151.1811 3.77952,-2.2e-4 c 0,-2.31261 1.28869,-3.7793 3.77953,-3.77953 2.39638,2.3e-4 3.77953,1.41249 3.77953,3.77953 l 3.77952,2.2e-4 v -11.33857"
       id="path55"
       sodipodi:nodetypes="cccccc" /><path
       style="fill:none;fill-opacity:0.401408;stroke:#000000;stroke-width:0.755906"
       d="m 111.49609,166.29921 7.68906,1e-5 -0.13001,-26.4567 h -7.55905"
       id="path52"
       sodipodi:nodetypes="cccc" /><path
       style="fill:none;fill-opacity:0.401408;stroke:#000000;stroke-width:0.755906"
       d="M 58.582697,196.53543 H 47.244117 V 139.84252"
       id="path43"
       sodipodi:nodetypes="ccc" /><path
       style="fill:none;fill-opacity:0.401408;stroke:#000000;stroke-width:0.755906"
       d="m 58.582697,166.29922 h -3.77953 v -26.4567"
       id="path42" /><circle
       style="fill:#73787e;fill-opacity:1;stroke:none;stroke-width:0.755906"
       id="path57"
       cx="47.244114"
       cy="139.84251"
       r="1.8897637" /><circle
       style="display:inline;fill:#73787e;fill-opacity:1;stroke:none;stroke-width:0.755906"
       id="path57-8"
       cx="54.803165"
       cy="139.84251"
       r="1.8897637" /><circle
       style="display:inline;fill:#73787e;fill-opacity:1;stroke:none;stroke-width:0.755906"
       id="path57-4"
       cx="126.6142"
       cy="139.84251"
       r="1.8897637" /><circle
       style="display:inline;fill:#73787e;fill-opacity:1;stroke:none;stroke-width:0.755906"
       id="path57-1"
       cx="111.49606"
       cy="139.84253"
       r="1.8897637" /></g><g
     inkscape:groupmode="layer"
     id="layer3"
     inkscape:label="hf kabel"><path
       id="path59"
       style="display:inline;fill:#9aa0a7;fill-opacity:1;stroke:#000000;stroke-width:0.755906;stroke-dasharray:none"
       d="m 141.72852,75.590555 3e-5,98.268475 h 0.004 c 6e-5,16.69909 -13.53724,30.23638 -30.23633,30.23632 h -7.5586 v 7.5586 h 7.5586 c 20.87348,-2e-4 37.79472,-16.92144 37.79492,-37.79492 h -0.004 l 0.004,-98.268475 z"
       sodipodi:nodetypes="cccsccscccc" /><rect
       style="fill:#9aa0a7;fill-opacity:1;stroke:#000000;stroke-width:0.7559055;stroke-opacity:1;stroke-dasharray:none"
       id="rect44"
       width="7.5590549"
       height="56.692913"
       x="122.83466"
       y="75.590561" /><ellipse
       style="fill:#b8bcc1;stroke:#000000;stroke-width:0.755906;stroke-dasharray:none"
       id="path12-2"
       cx="103.46457"
       cy="207.87401"
       rx="1.8897637"
       ry="3.7795198" /><ellipse
       style="fill:#b8bcc1;stroke:#000000;stroke-width:0.755906;stroke-dasharray:none"
       id="path12-2-1"
       cx="-132.28348"
       cy="126.6142"
       rx="1.8897637"
       ry="3.7795198"
       transform="rotate(-90)" /><path
       style="fill:#7cca89;stroke:#000000;stroke-width:0.77153"
       d="M 103.93703,207.87402 H 77.480337"
       id="path13-9"
       sodipodi:nodetypes="cc" /><path
       style="fill:none;fill-opacity:1;stroke:#000000;stroke-width:0.755906;stroke-dasharray:none"
       d="m 126.61419,132.28347 v 7.55905"
       id="path60" /><g
       id="g70"
       style="fill:#b8bcc1"><rect
         style="fill:#b8bcc1;fill-opacity:1;stroke:none;stroke-width:0.755906;stroke-dasharray:none"
         id="rect70"
         width="7.5590601"
         height="49.133858"
         x="122.83467"
         y="7.5590558" /><path
         style="fill:#b8bcc1;fill-opacity:1;stroke:#000000;stroke-width:0.755906;stroke-dasharray:none"
         d="M 122.83467,56.692912 V 7.5590556"
         id="path63" /><path
         style="fill:#b8bcc1;fill-opacity:1;stroke:#000000;stroke-width:0.755906;stroke-dasharray:none"
         d="M 130.39373,56.692912 V 7.5590556"
         id="path64" /></g><g
       id="g71"
       style="fill:#b8bcc1"><rect
         style="fill:#b8bcc1;fill-opacity:1;stroke:none;stroke-width:0.755906;stroke-dasharray:none"
         id="rect71"
         width="7.5590601"
         height="49.133858"
         x="141.73232"
         y="7.5590558" /><path
         style="fill:#b8bcc1;fill-opacity:1;stroke:#000000;stroke-width:0.755906;stroke-dasharray:none"
         d="M 141.73231,56.692912 V 7.5590556"
         id="path65" /><path
         style="fill:#b8bcc1;fill-opacity:1;stroke:#000000;stroke-width:0.755906;stroke-dasharray:none"
         d="M 149.29137,56.692912 V 7.5590556"
         id="path66" /></g><rect
       style="fill:#73787e;stroke:#000000;stroke-width:0.7559055;stroke-opacity:1;stroke-dasharray:none"
       id="rect31-3-2-93"
       width="11.338583"
       height="22.677166"
       x="120.94488"
       y="56.692917" /><rect
       style="fill:#73787e;stroke:#000000;stroke-width:0.7559055;stroke-opacity:1;stroke-dasharray:none"
       id="rect31-3-2-00"
       width="11.338583"
       height="22.677166"
       x="139.84254"
       y="56.692917" /></g><g
     inkscape:groupmode="layer"
     id="layer7"
     inkscape:label="twisted pair"><rect
       style="fill:#73787e;stroke:#000000;stroke-width:0.7559055;stroke-opacity:1;stroke-dasharray:none"
       id="rect31-3-2-9"
       width="11.338583"
       height="22.677166"
       x="64.251984"
       y="56.692917" /><rect
       style="fill:#73787e;stroke:#000000;stroke-width:0.7559055;stroke-opacity:1;stroke-dasharray:none"
       id="rect31-3-2-9-6"
       width="11.338583"
       height="22.677166"
       x="45.354343"
       y="56.692917" /><rect
       style="fill:#73787e;stroke:#000000;stroke-width:0.7559055;stroke-opacity:1;stroke-dasharray:none"
       id="rect31-3-2-1"
       width="11.338583"
       height="22.677166"
       x="83.149628"
       y="56.692917" /><rect
       style="fill:#73787e;stroke:#000000;stroke-width:0.7559055;stroke-opacity:1;stroke-dasharray:none"
       id="rect31-3-2-0"
       width="11.338583"
       height="22.677166"
       x="102.04727"
       y="56.692917" /><g
       id="g58"
       inkscape:label="voltage"
       style="stroke-width:0.755906;stroke-dasharray:none"
       transform="translate(-175.74801,-37.795275)"><path
         style="fill:none;stroke:#000000;stroke-width:0.755906;stroke-dasharray:none"
         d="m 230.55118,177.63779 c 0,-3.81936 -7.55905,-3.77953 -7.55905,-7.55905 0,-3.77953 7.55905,-3.77953 7.55905,-7.55906 0,-3.77952 -7.55905,-3.77952 -7.55905,-7.55905 4.2e-4,-3.77878 7.55905,-3.77953 7.55905,-7.55906 0,-3.77952 -7.55905,-3.77952 -7.55905,-7.55905 0,-3.77952 7.55905,-3.77952 7.55905,-7.55905 0,-3.77953 -7.55905,-3.77953 -7.55905,-7.55906 0,-3.77952 7.55905,-3.77952 7.55905,-7.55905"
         id="path31-9-0-0-1-9-9"
         sodipodi:nodetypes="ccccccccc" /><path
         style="fill:none;stroke:#000000;stroke-width:0.755906;stroke-dasharray:none"
         d="m 222.99213,177.63779 c 0,-3.81936 7.55905,-3.77953 7.55905,-7.55905 0,-3.77953 -7.55905,-3.77953 -7.55905,-7.55906 0,-3.77952 7.55905,-3.77952 7.55905,-7.55905 -4.2e-4,-3.77878 -7.55905,-3.77953 -7.55905,-7.55906 0,-3.77952 7.55905,-3.77952 7.55905,-7.55905 0,-3.77952 -7.55905,-3.77952 -7.55905,-7.55905 0,-3.77953 7.55905,-3.77953 7.55905,-7.55906 0,-3.77952 -7.55905,-3.77952 -7.55905,-7.55905"
         id="path31-9-0-0-1-9-9-5"
         sodipodi:nodetypes="ccccccccc" /></g><g
       id="g58-01"
       inkscape:label="gate"
       style="stroke-width:0.755906;stroke-dasharray:none"
       transform="translate(-119.0551,-37.795275)"><path
         style="fill:none;stroke:#000000;stroke-width:0.755906;stroke-dasharray:none"
         d="m 230.55118,177.63779 c -2.33841,0 -7.55905,-3.77953 -7.55905,-7.55905 0,-3.77953 7.55905,-3.77953 7.55905,-7.55906 0,-3.77952 -7.55905,-3.77952 -7.55905,-7.55905 4.2e-4,-3.77878 7.55905,-3.77953 7.55905,-7.55906 0,-3.77952 -7.55905,-3.77952 -7.55905,-7.55905 0,-3.77952 7.55905,-3.77952 7.55905,-7.55905 0,-3.77953 -7.55905,-3.77953 -7.55905,-7.55906 0,-3.77952 7.55905,-3.77952 7.55905,-7.55905"
         id="path31-9-0-0-1-9-9-0"
         sodipodi:nodetypes="ccccccccc" /><path
         style="fill:none;stroke:#000000;stroke-width:0.755906;stroke-dasharray:none"
         d="m 230.55118,177.63779 v -7.55905 c 0,-3.77953 -7.55905,-3.77953 -7.55905,-7.55906 0,-3.77952 7.55905,-3.77952 7.55905,-7.55905 -4.2e-4,-3.77878 -7.55905,-3.77953 -7.55905,-7.55906 0,-3.77952 7.55905,-3.77952 7.55905,-7.55905 0,-3.77952 -7.55905,-3.77952 -7.55905,-7.55905 0,-3.77953 7.55905,-3.77953 7.55905,-7.55906 0,-3.77952 -7.55905,-3.77952 -7.55905,-7.55905"
         id="path31-9-0-0-1-9-9-5-8"
         sodipodi:nodetypes="ccccccccc" /></g><g
       id="g58-2"
       inkscape:label="bias unten"
       transform="translate(-156.85038,-34.015745)"
       style="stroke-width:0.755906;stroke-dasharray:none"><path
         style="fill:none;stroke:#000000;stroke-width:0.755906;stroke-dasharray:none"
         d="m 204.09449,173.85826 c 0,-6.67991 26.4567,-2.75431 26.45669,-11.33858 0,-3.77952 -7.55905,-3.77952 -7.55905,-7.55905"
         id="path31-9-0-0-1-9-9-2"
         sodipodi:nodetypes="ccc" /><path
         style="fill:none;stroke:#000000;stroke-width:0.755906;stroke-dasharray:none"
         d="m 211.65355,173.85826 c 0,-3.81936 18.89763,-1e-5 18.89763,-3.77953 0,-3.77953 -7.55905,-3.77952 -7.55905,-7.55905 0,-3.77952 7.55905,-3.77952 7.55905,-7.55905"
         id="path31-9-0-0-1-9-9-5-1"
         sodipodi:nodetypes="cccc" /></g><g
       id="g58-0"
       inkscape:label="bias mitte"
       transform="translate(-156.85037,-83.149602)"
       style="stroke-width:0.755906;stroke-dasharray:none"><path
         style="fill:none;stroke:#000000;stroke-width:0.755906;stroke-dasharray:none"
         d="m 230.55118,177.63779 c 0,-3.81936 -7.55905,-3.77953 -7.55905,-7.55905 0,-3.77953 7.55905,-3.77953 7.55905,-7.55906"
         id="path31-9-0-0-1-9-9-3"
         sodipodi:nodetypes="ccc" /><path
         style="fill:none;stroke:#000000;stroke-width:0.755906;stroke-dasharray:none"
         d="m 222.99213,177.63779 c 0,-3.81936 7.55905,-3.77953 7.55905,-7.55905 0,-3.77953 -7.55905,-3.77953 -7.55905,-7.55906"
         id="path31-9-0-0-1-9-9-5-6"
         sodipodi:nodetypes="ccc" /></g><g
       id="g58-0-1"
       inkscape:label="current mitte"
       transform="translate(-137.95273,-83.149607)"
       style="stroke-width:0.755906;stroke-dasharray:none"><path
         style="fill:none;stroke:#000000;stroke-width:0.755906;stroke-dasharray:none"
         d="m 230.55118,177.63779 c 0,-3.81936 -7.55905,-3.77953 -7.55905,-7.55905 0,-3.77953 7.55905,-3.77953 7.55905,-7.55906"
         id="path31-9-0-0-1-9-9-3-5"
         sodipodi:nodetypes="ccc" /><path
         style="fill:none;stroke:#000000;stroke-width:0.755906;stroke-dasharray:none"
         d="m 222.99212,177.63779 c -0.0349,-3.77937 7.55906,-4.57554 7.55906,-7.55905 0,-3.77953 -7.55905,-3.77953 -7.55905,-7.55906"
         id="path31-9-0-0-1-9-9-5-6-2"
         sodipodi:nodetypes="ccc" /></g><g
       id="g58-0-1-9"
       inkscape:label="voltage oben"
       transform="translate(-175.74801,-120.94488)"
       style="stroke-width:0.755906;stroke-dasharray:none"><path
         style="fill:none;stroke:#000000;stroke-width:0.755906;stroke-dasharray:none"
         d="m 230.55118,177.63779 c 0,-3.81936 -7.55905,-3.77953 -7.55905,-7.55905 0,-3.77953 7.55905,-3.77953 7.55905,-7.55906"
         id="path31-9-0-0-1-9-9-3-5-5"
         sodipodi:nodetypes="ccc" /><path
         style="fill:none;stroke:#000000;stroke-width:0.755906;stroke-dasharray:none"
         d="m 222.99212,177.63779 c -0.0349,-3.77937 7.55906,-4.57554 7.55906,-7.55905 0,-3.77953 -7.55905,-3.77953 -7.55905,-7.55906"
         id="path31-9-0-0-1-9-9-5-6-2-9"
         sodipodi:nodetypes="ccc" /></g><g
       id="g58-0-1-9-6"
       inkscape:label="bias oben"
       transform="translate(-156.85031,-120.94836)"
       style="stroke-width:0.755906;stroke-dasharray:none"><path
         style="fill:none;stroke:#000000;stroke-width:0.755906;stroke-dasharray:none"
         d="m 230.55118,177.63779 c 0,-3.81936 -7.55905,-3.77953 -7.55905,-7.55905 0,-3.77953 7.55905,-3.77953 7.55905,-7.55906"
         id="path31-9-0-0-1-9-9-3-5-5-8"
         sodipodi:nodetypes="ccc" /><path
         style="fill:none;stroke:#000000;stroke-width:0.755906;stroke-dasharray:none"
         d="m 222.99212,177.63779 c -0.0349,-3.77937 7.55906,-4.57554 7.55906,-7.55905 0,-3.77953 -7.55905,-3.77953 -7.55905,-7.55906"
         id="path31-9-0-0-1-9-9-5-6-2-9-6"
         sodipodi:nodetypes="ccc" /></g><g
       id="g58-0-1-9-9"
       inkscape:label="current oben"
       transform="translate(-137.95262,-120.94836)"
       style="stroke-width:0.755906;stroke-dasharray:none"><path
         style="fill:none;stroke:#000000;stroke-width:0.755906;stroke-dasharray:none"
         d="m 230.55118,177.63779 c 0,-3.81936 -7.55905,-3.77953 -7.55905,-7.55905 0,-3.77953 7.55905,-3.77953 7.55905,-7.55906"
         id="path31-9-0-0-1-9-9-3-5-5-4"
         sodipodi:nodetypes="ccc" /><path
         style="fill:none;stroke:#000000;stroke-width:0.755906;stroke-dasharray:none"
         d="m 222.99212,177.63779 c -0.0349,-3.77937 7.55906,-4.57554 7.55906,-7.55905 0,-3.77953 -7.55905,-3.77953 -7.55905,-7.55906"
         id="path31-9-0-0-1-9-9-5-6-2-9-7"
         sodipodi:nodetypes="ccc" /></g><g
       id="g58-0-1-9-68"
       inkscape:label="gate oben"
       transform="translate(-119.05503,-120.9501)"
       style="stroke-width:0.755906;stroke-dasharray:none"><path
         style="fill:none;stroke:#000000;stroke-width:0.755906;stroke-dasharray:none"
         d="m 230.55118,177.63779 c 0,-3.81936 -7.55905,-3.77953 -7.55905,-7.55905 0,-3.77953 7.55905,-3.77953 7.55905,-7.55906"
         id="path31-9-0-0-1-9-9-3-5-5-1"
         sodipodi:nodetypes="ccc" /><path
         style="fill:none;stroke:#000000;stroke-width:0.755906;stroke-dasharray:none"
         d="m 222.99212,177.63779 c -0.0349,-3.77937 7.55906,-4.57554 7.55906,-7.55905 0,-3.77953 -7.55905,-3.77953 -7.55905,-7.55906"
         id="path31-9-0-0-1-9-9-5-6-2-9-3"
         sodipodi:nodetypes="ccc" /></g></g><g
     inkscape:groupmode="layer"
     id="layer13"
     inkscape:label="mf25"><g
       id="g72"
       style="fill:#b8bcc1"><rect
         style="fill:#b8bcc1;fill-opacity:1;stroke:none;stroke-width:0.755906;stroke-dasharray:none"
         id="rect72"
         width="11.33859"
         height="11.338582"
         x="73.700806"
         y="7.5590558" /><path
         style="fill:#b8bcc1;fill-opacity:1;stroke:#000000;stroke-width:0.755906;stroke-dasharray:none"
         d="M 73.700807,7.5590556 V 18.897638"
         id="path61" /><path
         style="fill:#b8bcc1;fill-opacity:1;stroke:#000000;stroke-width:0.755906;stroke-dasharray:none"
         d="M 85.039397,7.5590556 V 18.897638"
         id="path62" /></g><rect
       style="fill:#9aa0a7;fill-opacity:1;stroke:#000000;stroke-width:0.755906;stroke-dasharray:none;stroke-opacity:1"
       id="rect60"
       width="71.811028"
       height="22.677166"
       x="43.464588"
       y="18.897638" /></g><g
     inkscape:groupmode="layer"
     id="layer10"
     inkscape:label="rref"
     style="display:inline"><rect
       style="display:inline;fill:#b8bcc1;stroke:none;stroke-width:0.67866"
       id="rect26-0"
       width="35.90551"
       height="26.456694"
       x="-96.377953"
       y="94.489746"
       transform="scale(-1,1)" /><rect
       style="display:inline;fill:#00a9e0;stroke:#000000;stroke-width:0.755906"
       id="rect20-7"
       width="5.6692915"
       height="13.228347"
       x="63.307114"
       y="101.10393" /><rect
       style="display:inline;fill:#00a9e0;stroke:#000000;stroke-width:0.755906"
       id="rect20-7-7"
       width="5.6692915"
       height="13.228347"
       x="70.86615"
       y="101.10393" /><path
       style="fill:#59ebc7;fill-opacity:0.401408;stroke:#000000;stroke-width:0.755906"
       d="m 66.141767,94.489745 -1e-5,6.614195"
       id="path45"
       sodipodi:nodetypes="cc" /><path
       style="fill:#59ebc7;fill-opacity:0.401408;stroke:#000000;stroke-width:0.755906"
       d="m 66.141757,114.33228 1e-5,6.61417"
       id="path47"
       sodipodi:nodetypes="cc" /><path
       style="fill:#59ebc7;fill-opacity:0.401408;stroke:#000000;stroke-width:0.755906"
       d="m 73.700797,114.33228 1e-5,6.61417"
       id="path48"
       sodipodi:nodetypes="cc" /><path
       style="fill:none;fill-opacity:0.401408;stroke:#000000;stroke-width:0.755906"
       d="m 73.700807,98.269295 11.33858,-1e-5 v -3.77954"
       id="path49"
       sodipodi:nodetypes="ccc" /><path
       style="fill:none;fill-opacity:0.401408;stroke:#000000;stroke-width:0.755906"
       d="m 73.700807,117.16694 18.89764,-1e-5 V 94.489745"
       id="path50"
       sodipodi:nodetypes="ccc" /><path
       style="fill:none;fill-opacity:1;stroke:#000000;stroke-width:0.755906"
       d="m 73.700807,94.488185 v 6.615745"
       id="path58" /></g><g
     inkscape:groupmode="layer"
     id="layer11"
     inkscape:label="thermometer"
     style="display:inline"><g
       id="g75"
       style="fill:#b8bcc1"><rect
         style="fill:#b8bcc1;fill-opacity:1;stroke:none;stroke-width:0.755906;stroke-dasharray:none"
         id="rect73"
         width="7.5590601"
         height="49.133862"
         x="9.4783096"
         y="7.5590549" /><path
         style="fill:#b8bcc1;fill-opacity:1;stroke:#000000;stroke-width:0.755906;stroke-dasharray:none"
         d="M 9.47831,56.692915 V 7.559055"
         id="path63-3" /><path
         style="fill:#b8bcc1;fill-opacity:1;stroke:#000000;stroke-width:0.755906;stroke-dasharray:none"
         d="M 17.03737,56.692915 V 7.559055"
         id="path64-5" /></g><g
       id="g74"
       style="fill:#b8bcc1"><rect
         style="fill:#b8bcc1;fill-opacity:1;stroke:none;stroke-width:0.755906;stroke-dasharray:none"
         id="rect74"
         width="7.5590601"
         height="49.133862"
         x="28.37595"
         y="7.5590549" /><path
         style="fill:#b8bcc1;fill-opacity:1;stroke:#000000;stroke-width:0.755906;stroke-dasharray:none"
         d="M 28.37595,56.692915 V 7.559055"
         id="path65-1" /><path
         style="fill:#b8bcc1;fill-opacity:1;stroke:#000000;stroke-width:0.755906;stroke-dasharray:none"
         d="M 35.93501,56.692915 V 7.559055"
         id="path66-5" /></g><path
       style="fill:#73787e;fill-opacity:1;stroke:#000000;stroke-width:0.755906;stroke-dasharray:none"
       d="m 28.346487,151.18138 -2.4e-4,5.85852"
       id="path68" /><path
       style="fill:#73787e;fill-opacity:1;stroke:#000000;stroke-width:0.755906;stroke-dasharray:none"
       d="m 35.905547,151.18138 v 7.55905"
       id="path69" /><path
       id="path70-2"
       style="fill:#73787e;fill-opacity:1;stroke:#000000;stroke-width:0.755906;stroke-dasharray:none"
       d="m 22.677777,158.74062 v 7.55859 a 9.4488192,3.7795274 0 0 0 9.44727,3.7793 9.4488192,3.7795274 0 0 0 9.44921,-3.7793 v -7.55859 z" /><ellipse
       style="fill:#9aa0a7;fill-opacity:1;stroke:#000000;stroke-width:0.755906;stroke-dasharray:none"
       id="path70"
       cx="32.125996"
       cy="158.74043"
       rx="9.4488192"
       ry="3.7795274" /><path
       id="path70-2-5"
       style="fill:#73787e;fill-opacity:1;stroke:#000000;stroke-width:0.755906;stroke-dasharray:none"
       d="m 22.677777,188.97661 v 7.55859 a 9.4488192,3.7795274 0 0 0 9.44727,3.7793 9.4488192,3.7795274 0 0 0 9.44921,-3.7793 v -7.55859 z" /><ellipse
       style="fill:#9aa0a7;fill-opacity:1;stroke:#000000;stroke-width:0.755906;stroke-dasharray:none"
       id="path70-9"
       cx="32.125996"
       cy="188.97641"
       rx="9.4488192"
       ry="3.7795274" /><g
       id="g58-6"
       inkscape:label="voltage"
       style="stroke-width:0.755906;stroke-dasharray:none"
       transform="translate(-213.54329,-37.795275)"><path
         style="fill:none;stroke:#000000;stroke-width:0.755906;stroke-dasharray:none"
         d="m 230.55118,177.63779 c 0,-3.81936 -7.55905,-3.77953 -7.55905,-7.55905 0,-3.77953 7.55905,-3.77953 7.55905,-7.55906 0,-3.77952 -7.55905,-3.77952 -7.55905,-7.55905 4.2e-4,-3.77878 7.55905,-3.77953 7.55905,-7.55906 0,-3.77952 -7.55905,-3.77952 -7.55905,-7.55905 0,-3.77952 7.55905,-3.77952 7.55905,-7.55905 0,-3.77953 -7.55905,-3.77953 -7.55905,-7.55906 0,-3.77952 7.55905,-3.77952 7.55905,-7.55905"
         id="path31-9-0-0-1-9-9-9"
         sodipodi:nodetypes="ccccccccc" /><path
         style="fill:none;stroke:#000000;stroke-width:0.755906;stroke-dasharray:none"
         d="m 222.99213,177.63779 c 0,-3.81936 7.55905,-3.77953 7.55905,-7.55905 0,-3.77953 -7.55905,-3.77953 -7.55905,-7.55906 0,-3.77952 7.55905,-3.77952 7.55905,-7.55905 -4.2e-4,-3.77878 -7.55905,-3.77953 -7.55905,-7.55906 0,-3.77952 7.55905,-3.77952 7.55905,-7.55905 0,-3.77952 -7.55905,-3.77952 -7.55905,-7.55905 0,-3.77953 7.55905,-3.77953 7.55905,-7.55906 0,-3.77952 -7.55905,-3.77952 -7.55905,-7.55905"
         id="path31-9-0-0-1-9-9-5-53"
         sodipodi:nodetypes="ccccccccc" /></g><g
       id="g58-29"
       inkscape:label="voltage"
       style="stroke-width:0.755906;stroke-dasharray:none"
       transform="translate(-213.54329,22.677162)"><path
         style="fill:none;stroke:#000000;stroke-width:0.755906;stroke-dasharray:none"
         d="m 236.22106,173.85803 c -5.66988,2.4e-4 0,0 -5.66988,2.4e-4 -3.64109,1.5e-4 -7.55905,-2.08867 -7.55905,-3.77953 0,-3.77953 7.55905,-3.77953 7.55905,-7.55906 0,-3.77952 -7.55905,-3.77952 -7.55905,-7.55905 4.2e-4,-3.77878 7.55905,-3.77953 7.55905,-7.55906 0,-3.77952 -7.55905,-3.77952 -7.55905,-7.55905 0,-3.77952 7.55905,-3.77952 7.55905,-7.55905 0,-3.77953 -7.55905,-3.77953 -7.55905,-7.55906 0,-3.77952 7.55905,-3.77952 7.55905,-7.55905"
         id="path31-9-0-0-1-9-9-4"
         sodipodi:nodetypes="cscccccccc" /><path
         style="fill:none;stroke:#000000;stroke-width:0.755906;stroke-dasharray:none"
         d="m 236.22106,170.07874 c -5.50863,2.3e-4 -1.89035,0 -5.66988,0 -3.77953,0 -7.55905,-3.77953 -7.55905,-7.55906 0,-3.77952 7.55905,-3.77952 7.55905,-7.55905 -4.2e-4,-3.77878 -7.55905,-3.77953 -7.55905,-7.55906 0,-3.77952 7.55905,-3.77952 7.55905,-7.55905 0,-3.77952 -7.55905,-3.77952 -7.55905,-7.55905 0,-3.77953 7.55905,-3.77953 7.55905,-7.55906 0,-3.77952 -7.55905,-3.77952 -7.55905,-7.55905"
         id="path31-9-0-0-1-9-9-5-16"
         sodipodi:nodetypes="ccccccccc" /></g><g
       id="g58-9"
       inkscape:label="voltage"
       style="stroke-width:0.755906;stroke-dasharray:none"
       transform="translate(-194.64567,-37.795275)"><path
         style="fill:none;stroke:#000000;stroke-width:0.755906;stroke-dasharray:none"
         d="m 230.55118,177.63779 c 0,-3.81936 -7.55905,-3.77953 -7.55905,-7.55905 0,-3.77953 7.55905,-3.77953 7.55905,-7.55906 0,-3.77952 -7.55905,-3.77952 -7.55905,-7.55905 4.2e-4,-3.77878 7.55905,-3.77953 7.55905,-7.55906 0,-3.77952 -7.55905,-3.77952 -7.55905,-7.55905 0,-3.77952 7.55905,-3.77952 7.55905,-7.55905 0,-3.77953 -7.55905,-3.77953 -7.55905,-7.55906 0,-3.77952 7.55905,-3.77952 7.55905,-7.55905"
         id="path31-9-0-0-1-9-9-25"
         sodipodi:nodetypes="ccccccccc" /><path
         style="fill:none;stroke:#000000;stroke-width:0.755906;stroke-dasharray:none"
         d="m 222.99213,177.63779 c 0,-3.81936 7.55905,-3.77953 7.55905,-7.55905 0,-3.77953 -7.55905,-3.77953 -7.55905,-7.55906 0,-3.77952 7.55905,-3.77952 7.55905,-7.55905 -4.2e-4,-3.77878 -7.55905,-3.77953 -7.55905,-7.55906 0,-3.77952 7.55905,-3.77952 7.55905,-7.55905 0,-3.77952 -7.55905,-3.77952 -7.55905,-7.55905 0,-3.77953 7.55905,-3.77953 7.55905,-7.55906 0,-3.77952 -7.55905,-3.77952 -7.55905,-7.55905"
         id="path31-9-0-0-1-9-9-5-5"
         sodipodi:nodetypes="ccccccccc" /></g><g
       id="g58-9-5"
       inkscape:label="voltage"
       style="display:inline;stroke-width:0.755906;stroke-dasharray:none"
       transform="translate(-194.64565,-22.677168)"><path
         style="fill:none;stroke:#000000;stroke-width:0.755906;stroke-dasharray:none"
         d="m 230.55118,177.63779 c 0,-3.81936 -7.55905,-3.77953 -7.55905,-7.55905 0,-3.77953 7.55905,-3.77953 7.55905,-7.55906 0,-3.77952 -7.55905,-3.77952 -7.55905,-7.55905 4.2e-4,-3.77878 7.55905,-3.77953 7.55905,-7.55906 0,-3.77952 -7.55905,-3.77952 -7.55905,-7.55905 0,-3.77952 7.55905,-3.77952 7.55905,-7.55905 0,-3.77953 -7.55905,-3.77953 -7.55905,-7.55906 0,-3.77952 7.55905,-3.77952 7.55905,-7.55905"
         id="path31-9-0-0-1-9-9-25-8"
         sodipodi:nodetypes="ccccccccc" /><path
         style="fill:none;stroke:#000000;stroke-width:0.755906;stroke-dasharray:none"
         d="m 222.99213,177.63779 c 0,-3.81936 7.55905,-3.77953 7.55905,-7.55905 0,-3.77953 -7.55905,-3.77953 -7.55905,-7.55906 0,-3.77952 7.55905,-3.77952 7.55905,-7.55905 -4.2e-4,-3.77878 -7.55905,-3.77953 -7.55905,-7.55906 0,-3.77952 7.55905,-3.77952 7.55905,-7.55905 0,-3.77952 -7.55905,-3.77952 -7.55905,-7.55905 0,-3.77953 7.55905,-3.77953 7.55905,-7.55906 0,-3.77952 -7.55905,-3.77952 -7.55905,-7.55905"
         id="path31-9-0-0-1-9-9-5-5-2"
         sodipodi:nodetypes="ccccccccc" /></g><g
       id="g58-9-9"
       inkscape:label="voltage"
       style="display:inline;stroke-width:0.755906;stroke-dasharray:none"
       transform="translate(-194.64565,-26.456695)"><path
         style="fill:none;stroke:#000000;stroke-width:0.755906;stroke-dasharray:none"
         d="m 230.55118,177.63779 c 0,-3.81936 -7.55905,-3.77953 -7.55905,-7.55905 0,-3.77953 7.55905,-3.77953 7.55905,-7.55906 0,-3.77952 -7.55905,-3.77952 -7.55905,-7.55905 4.2e-4,-3.77878 7.55905,-3.77953 7.55905,-7.55906 0,-3.77952 -7.55905,-3.77952 -7.55905,-7.55905 0,-3.77952 7.55905,-3.77952 7.55905,-7.55905 0,-3.77953 -7.55905,-3.77953 -7.55905,-7.55906 0,-3.77952 7.55905,-3.77952 7.55905,-7.55905"
         id="path31-9-0-0-1-9-9-25-0"
         sodipodi:nodetypes="ccccccccc" /><path
         style="fill:none;stroke:#000000;stroke-width:0.755906;stroke-dasharray:none"
         d="m 222.99213,177.63779 c 0,-3.81936 7.55905,-3.77953 7.55905,-7.55905 0,-3.77953 -7.55905,-3.77953 -7.55905,-7.55906 0,-3.77952 7.55905,-3.77952 7.55905,-7.55905 -4.2e-4,-3.77878 -7.55905,-3.77953 -7.55905,-7.55906 0,-3.77952 7.55905,-3.77952 7.55905,-7.55905 0,-3.77952 -7.55905,-3.77952 -7.55905,-7.55905 0,-3.77953 7.55905,-3.77953 7.55905,-7.55906 0,-3.77952 -7.55905,-3.77952 -7.55905,-7.55905"
         id="path31-9-0-0-1-9-9-5-5-1"
         sodipodi:nodetypes="ccccccccc" /></g><g
       id="g58-9-4"
       inkscape:label="voltage"
       style="stroke-width:0.755906;stroke-dasharray:none"
       transform="translate(-194.64565,-41.57481)"><path
         style="fill:none;stroke:#000000;stroke-width:0.755906;stroke-dasharray:none"
         d="m 230.55118,177.63779 c 0,-3.81936 -7.55905,-3.77953 -7.55905,-7.55905 0,-3.77953 7.55905,-3.77953 7.55905,-7.55906 0,-3.77952 -7.55905,-3.77952 -7.55905,-7.55905 4.2e-4,-3.77878 7.55905,-3.77953 7.55905,-7.55906 0,-3.77952 -7.55905,-3.77952 -7.55905,-7.55905 0,-3.77952 7.55905,-3.77952 7.55905,-7.55905 0,-3.77953 -7.55905,-3.77953 -7.55905,-7.55906 0,-3.77952 7.55905,-3.77952 7.55905,-7.55905"
         id="path31-9-0-0-1-9-9-25-2"
         sodipodi:nodetypes="ccccccccc" /><path
         style="fill:none;stroke:#000000;stroke-width:0.755906;stroke-dasharray:none"
         d="m 222.99213,177.63779 c 0,-3.81936 7.55905,-3.77953 7.55905,-7.55905 0,-3.77953 -7.55905,-3.77953 -7.55905,-7.55906 0,-3.77952 7.55905,-3.77952 7.55905,-7.55905 -4.2e-4,-3.77878 -7.55905,-3.77953 -7.55905,-7.55906 0,-3.77952 7.55905,-3.77952 7.55905,-7.55905 0,-3.77952 -7.55905,-3.77952 -7.55905,-7.55905 0,-3.77953 7.55905,-3.77953 7.55905,-7.55906 0,-3.77952 -7.55905,-3.77952 -7.55905,-7.55905"
         id="path31-9-0-0-1-9-9-5-5-6"
         sodipodi:nodetypes="ccccccccc" /></g><rect
       style="fill:#73787e;stroke:#000000;stroke-width:0.7559055;stroke-opacity:1;stroke-dasharray:none"
       id="rect31-3-2-9-6-8"
       width="11.338583"
       height="22.677166"
       x="7.5590549"
       y="56.692917" /><rect
       style="fill:#73787e;stroke:#000000;stroke-width:0.7559055;stroke-opacity:1;stroke-dasharray:none"
       id="rect31-3-2-9-3"
       width="11.338583"
       height="22.677166"
       x="26.456699"
       y="56.692917" /></g></svg>
