<?xml version="1.0" encoding="UTF-8" standalone="no"?>
<!-- Created with Inkscape (http://www.inkscape.org/) -->

<svg
   width="18000mm"
   height="3000mm"
   viewBox="0 0 18000 3000"
   version="1.1"
   id="svg1"
   inkscape:version="1.3.2 (091e20e, 2023-11-25)"
   sodipodi:docname="24 07 15 - long finger 3 (original coordinate system).svg"
   xmlns:inkscape="http://www.inkscape.org/namespaces/inkscape"
   xmlns:sodipodi="http://sodipodi.sourceforge.net/DTD/sodipodi-0.dtd"
   xmlns="http://www.w3.org/2000/svg"
   xmlns:svg="http://www.w3.org/2000/svg">
  <sodipodi:namedview
     id="namedview1"
     pagecolor="#ffffff"
     bordercolor="#000000"
     borderopacity="0.25"
     inkscape:showpageshadow="2"
     inkscape:pageopacity="0.0"
     inkscape:pagecheckerboard="0"
     inkscape:deskcolor="#d1d1d1"
     inkscape:document-units="mm"
     inkscape:zoom="13.910959"
     inkscape:cx="-1.7612014"
     inkscape:cy="11.537666"
     inkscape:window-width="1280"
     inkscape:window-height="710"
     inkscape:window-x="0"
     inkscape:window-y="33"
     inkscape:window-maximized="0"
     inkscape:current-layer="layer1" />
  <defs
     id="defs1" />
  <g
     inkscape:label="Layer 1"
     inkscape:groupmode="layer"
     id="layer1">
    <path
       style="fill:#ff0000;stroke:none;stroke-width:0.3;stroke-opacity:1;fill-opacity:0.5"
       d="M -3.3,4.5 H -1 L -0.6,4.1 V 2.9 L -1,2.5 h -2.3 z"
       id="path2"
       sodipodi:nodetypes="ccccccc" />
    <path
       style="fill:#ff0000;fill-opacity:0.5;stroke:none;stroke-width:0.3;stroke-opacity:1"
       d="M -0.1,3.55 V 3.45 L -1,2.5 v 2 z"
       id="path3"
       sodipodi:nodetypes="ccccc" />
    <path
       style="fill:#ff0000;fill-opacity:0.5;stroke:none;stroke-width:0.3;stroke-opacity:1"
       d="m -0.3,3.45 v 0.1 h 0.6 v -0.1 z"
       id="path4"
       sodipodi:nodetypes="ccccc" />
    <path
       style="fill:#ff0000;fill-opacity:0.5;stroke:none;stroke-width:0.3;stroke-opacity:1"
       d="M 0.1,3.55 1,4.5 v -2 L 0.1,3.45 Z"
       id="path5"
       sodipodi:nodetypes="ccccc" />
    <path
       style="fill:#ff0000;stroke:none;stroke-width:0.3;stroke-opacity:1;fill-opacity:0.5"
       d="M 3.1,4.5 H 1 L 0.6,4.1 V 2.9 L 1,2.5 h 2.1 z"
       id="path6"
       sodipodi:nodetypes="ccccccc" />
    <path
       style="fill:#ff0000;stroke:none;stroke-width:0.3;stroke-opacity:1;fill-opacity:0.5"
       d="m 3.4,2.5 h 3 v 2 h -3 z"
       id="path7"
       sodipodi:nodetypes="ccccc" />
    <path
       style="fill:#ff0000;fill-opacity:0.5;stroke:none;stroke-width:0.3;stroke-opacity:1"
       d="m 1.4,0.5 0.55,1.85 h 0.1 L 2.6,0.5 Z"
       id="path8"
       sodipodi:nodetypes="ccccc" />
    <path
       style="fill:#ff0000;fill-opacity:0.5;stroke:none;stroke-width:0.3;stroke-opacity:1"
       d="m 1.5,1 h 1 L 3,0.3 V -1.5 H 1 v 1.8 z"
       id="path9"
       sodipodi:nodetypes="ccccccc" />
    <path
       style="fill:#00ff00;fill-opacity:0.5;stroke:none;stroke-width:0.3;stroke-opacity:1"
       d="M 5,5 H 35 50 V -5 H 35 L 5,2 Z"
       id="path11"
       sodipodi:nodetypes="ccccccc" />
    <path
       style="fill:#00ff00;fill-opacity:0.501923;stroke:none;stroke-width:0.3;stroke-opacity:1"
       d="m -5,-50 v 17 L 0.6,0 H 3.4 L 5,-33 v -17 z"
       id="path12"
       sodipodi:nodetypes="ccccccc" />
    <path
       style="fill:#00ff00;fill-opacity:0.496154;stroke:none;stroke-width:0.3;stroke-opacity:1"
       d="M -2,5 V 2 L -32,-5 H -50 V 5 h 18 z"
       id="path13"
       sodipodi:nodetypes="ccccccc" />
    <path
       style="fill:#ffff00;fill-opacity:0.5;stroke:none;stroke-width:0.3;stroke-opacity:1"
       d="m -40,5 v -20 l -210,-445 h -250 v 60 h 200 L -70,5 Z"
       id="path14"
       sodipodi:nodetypes="cccccccc" />
    <path
       style="fill:#ffff00;fill-opacity:0.5;stroke:none;stroke-width:0.3;stroke-opacity:1"
       d="m -10,-40 h 20 l 20,-110 v -350 h -60 v 350 z"
       id="path15"
       sodipodi:nodetypes="ccccccc" />
    <path
       style="fill:#ffff00;fill-opacity:0.5;stroke:none;stroke-width:0.3;stroke-opacity:1"
       d="m 40,5 v -20 l 210,-445 h 250 v 60 H 300 L 70,5 Z"
       id="path16"
       sodipodi:nodetypes="cccccccc" />
    <path
       style="fill:#00f6ff;fill-opacity:0.5;stroke:none;stroke-width:0.3;stroke-opacity:1"
       d="m -60,-1200 v 800 l 30,100 h 60 l 30,-100 v -800 h 1880 v 110 h 560 v -560 h -560 v 390 H 60 -60 -1940 v -390 h -560 v 560 h 560 v -110 h 540 v 800 h 950 v -60 h -890 v -740 z"
       id="path17"
       sodipodi:nodetypes="ccccccccccccccccccccccccccc" />
    <path
       style="fill:#00f6ff;fill-opacity:0.5;stroke:none;stroke-width:0.3;stroke-opacity:1"
       d="m 450,-400 h 2490 v 100 h 560 v -560 h -560 v 400 H 450 Z"
       id="path18"
       sodipodi:nodetypes="ccccccccc" />
    <path
       style="fill:#00f6ff;fill-opacity:0.5;stroke:none;stroke-width:0.3;stroke-opacity:1"
       d="M 5500,73 V 13 h -8440 v -223 h -560 V 13 h -2000 v 60 h 2000 v 277 h 560 V 73 Z"
       id="path19"
       sodipodi:nodetypes="ccccccccccccc" />
  </g>
</svg>
